<?xml version="1.0" encoding="UTF-8" standalone="no"?>
<svg width="1024" height="1024" viewBox="0 0 1024 1024" version="1.1" xmlns="http://www.w3.org/2000/svg" xmlns:xlink="http://www.w3.org/1999/xlink" xml:space="preserve" style="fill-rule:evenodd;clip-rule:evenodd;stroke-linejoin:round;stroke-miterlimit:2;">
    <defs>
        <clipPath id="round-corners">
            <rect x="0" y="0" width="1024" height="1024" rx="160" ry="160" />
        </clipPath>
    </defs>
    
    <g clip-path="url(#round-corners)">
        <rect x="0" y="0" width="1024" height="1024" style="fill:white;"/>
        
        <g transform="matrix(0.880282,0,0,0.880282,61.2958,61.2958)">
            <g transform="matrix(1.11925,-1.11022e-16,8.32667e-17,1.11925,-158.047,-43.9569)">
                <path d="M622.415,73.554C607.65,72.781 592.856,72.781 578.091,73.554C572.109,90.235 566.857,107.143 562.336,124.277C548.521,125.683 534.796,127.857 521.223,130.789C511.628,115.89 501.409,101.433 490.565,87.417C476.284,91.244 462.213,95.816 448.41,101.114C447.875,118.827 448.105,136.53 449.1,154.223C436.396,159.829 424.014,166.138 412.011,173.12C398.282,161.916 384.096,151.324 369.451,141.346C357.052,149.398 345.082,158.095 333.592,167.399C338.557,184.41 344.246,201.175 350.66,217.695C340.31,226.953 330.484,236.779 321.226,247.128C304.707,240.715 287.941,235.025 270.93,230.061C261.626,241.551 252.93,253.52 244.877,265.92C254.856,280.564 265.447,294.751 276.652,308.48C269.67,320.483 263.361,332.865 257.754,345.568C240.061,344.573 222.359,344.343 204.646,344.878C199.348,358.681 194.776,372.752 190.949,387.033C204.964,397.877 219.421,408.097 234.32,417.691C231.389,431.264 229.215,444.99 227.809,458.804C210.674,463.325 193.767,468.577 177.086,474.559C176.313,489.324 176.313,504.119 177.086,518.884C193.767,524.866 210.674,530.118 227.809,534.639C229.215,548.453 231.389,562.179 234.32,575.752C219.421,585.346 204.964,595.566 190.949,606.41C194.776,620.691 199.348,634.762 204.646,648.565C222.359,649.1 240.061,648.87 257.754,647.875C263.361,660.578 269.67,672.96 276.652,684.963C265.447,698.692 254.856,712.879 244.877,727.523C252.93,739.923 261.626,751.892 270.93,763.382C287.941,758.417 304.707,752.728 321.226,746.315C330.484,756.664 340.31,766.49 350.66,775.748C344.246,792.268 338.557,809.033 333.592,826.044C345.082,835.348 357.052,844.045 369.451,852.097C384.096,842.119 398.282,831.527 412.011,820.323C424.014,827.305 436.396,833.614 449.1,839.22C448.105,856.913 447.875,874.616 448.41,892.329C462.213,897.627 476.284,902.199 490.565,906.026C501.409,892.01 511.628,877.553 521.223,862.654C534.796,865.586 548.521,867.76 562.336,869.166C566.857,886.3 572.109,903.208 578.091,919.889C592.856,920.662 607.65,920.662 622.415,919.889C628.397,903.208 633.649,886.3 638.17,869.166C651.985,867.76 665.71,865.586 679.283,862.654C688.878,877.553 699.097,892.01 709.941,906.026C724.222,902.199 738.293,897.627 752.096,892.329C752.631,874.616 752.401,856.913 751.406,839.22C764.11,833.614 776.492,827.305 788.495,820.323C802.224,831.527 816.41,842.119 831.055,852.097C843.454,844.045 855.424,835.348 866.914,826.044C861.949,809.033 856.26,792.268 849.846,775.748C860.196,766.49 870.022,756.664 879.28,746.315C895.799,752.728 912.565,758.417 929.576,763.382C938.88,751.892 947.576,739.923 955.629,727.523C945.65,712.879 935.059,698.692 923.854,684.963C930.836,672.96 937.145,660.578 942.752,647.875C960.445,648.87 978.148,649.1 995.86,648.565C1001.16,634.762 1005.73,620.691 1009.56,606.41C995.542,595.566 981.085,585.346 966.186,575.752C969.117,562.179 971.291,548.453 972.698,534.639C989.832,530.118 1006.74,524.866 1023.42,518.884C1024.19,504.119 1024.19,489.324 1023.42,474.559C1006.74,468.577 989.832,463.325 972.698,458.804C971.291,444.99 969.117,431.264 966.186,417.691C981.085,408.097 995.542,397.877 1009.56,387.033C1005.73,372.752 1001.16,358.681 995.86,344.878C978.148,344.343 960.445,344.573 942.752,345.568C937.145,332.865 930.836,320.483 923.854,308.48C935.059,294.751 945.65,280.564 955.629,265.92C947.576,253.52 938.88,241.551 929.576,230.061C912.565,235.025 895.799,240.715 879.28,247.128C870.022,236.779 860.196,226.953 849.846,217.695C856.26,201.175 861.949,184.41 866.914,167.399C855.424,158.095 843.454,149.398 831.055,141.346C816.41,151.324 802.224,161.916 788.495,173.12C776.492,166.138 764.11,159.829 751.406,154.223C752.401,136.53 752.631,118.827 752.096,101.114C738.293,95.816 724.222,91.244 709.941,87.417C699.097,101.433 688.878,115.89 679.283,130.789C665.71,127.857 651.985,125.683 638.17,124.277C633.649,107.143 628.397,90.235 622.415,73.554ZM600.253,411.972C647.027,411.972 685.002,449.947 685.002,496.721C685.002,543.496 647.027,581.471 600.253,581.471C553.479,581.471 515.504,543.496 515.504,496.721C515.504,449.947 553.479,411.972 600.253,411.972Z"/>
            </g>
            <g transform="matrix(4.59236e-20,1.15195,1.1527,4.59236e-20,511.989,170.005)">
                <path d="M296.874,-296.874C132.915,-296.874 0,-163.959 0,0C0,163.959 132.915,296.874 296.874,296.874C460.833,296.874 593.748,163.959 593.748,0C593.748,-163.959 460.833,-296.874 296.874,-296.874Z" style="fill:white;"/>
            </g>
            <g transform="matrix(1.28628,0,0,1.28628,-12131.9,147.709)">
                <circle cx="9829.84" cy="283.205" r="238.441"/>
            </g>
            <g transform="matrix(1.26241,0,0,1.26241,733.684,490.183)">
                <path d="M0,44.112C0.537,44.823 1.066,45.406 1.593,45.891C4.206,31.333 6.52,18.051 8.753,6.135C5.245,-17.191 1.705,-46.113 -12.48,-57.995C-28.964,-68.668 -29.49,-49.932 -45.318,55.833C-48.758,76.661 -54.209,104.394 -59.748,124.514C-63.098,108.48 -67.243,83.974 -70.497,66.576C-80.135,15.653 -84.046,2.548 -90.472,-4.464C-96.936,-11.76 -103.411,-13.294 -108.045,-13.53C-109.698,-22.235 -111.953,-35.341 -113.847,-45.513C-126.847,-113.991 -134.44,-128.917 -147.326,-135.655C-151.905,-137.733 -156.764,-137.614 -160.877,-135.334C-165.951,-131.931 -169.018,-129.092 -173.378,-110.986C-177.721,-92.446 -183.357,-58.64 -193.145,16.743C-197.448,49.994 -202.648,92.828 -206.392,120.56C-212.436,101.541 -219.051,77.138 -223.748,58.795C-244.464,-23.868 -246.66,-35.737 -256.09,-41.326C-261.82,-44.641 -266.806,-43.87 -270.728,-42.13C-272.039,-52.461 -272.925,-69.061 -273.3,-80.193C-274.817,-125.6 -273.179,-142.787 -289.379,-140.383C-306.712,-136.728 -317.892,-115.253 -332.465,-13.747C-335.639,9.348 -338.749,38.208 -341.11,57.014C-345.537,41.138 -349.787,23.419 -352.626,12.072C-355.274,26.454 -357.649,39.439 -359.978,50.978C-351.986,86.432 -346.12,103.663 -338.341,110.119C-321.838,121.437 -323.896,107.514 -309.411,-10.345C-307.318,-25.026 -304.613,-41.847 -301.527,-57.57C-299.848,-25.884 -297.637,-8.899 -290.943,-0.341C-283.658,9.111 -276.57,9.521 -271.413,7.391C-267.358,21.961 -260.241,51.496 -253.967,74.412C-225.765,174.371 -215.672,180.8 -202.976,185.952C-202.417,186.09 -201.858,186.211 -201.328,186.313C-191.728,186.899 -186.706,185.732 -181.084,166.291C-175.525,146.501 -169.365,108.438 -158.933,27.155C-155.622,1.448 -151.929,-28.515 -148.839,-52.613C-147.818,-46.78 -146.886,-41.224 -146.098,-36.441C-139.473,4.272 -137.572,17.325 -132.265,25.708C-124.256,38.702 -114.887,38.134 -110.068,37.665C-107.22,48.634 -102.962,70.001 -100.118,85.339C-84.85,169.639 -83.534,180.442 -67.224,179.798C-48.527,176.413 -35.956,145.646 -21.936,59.975C-18.179,36.884 -14.363,7.777 -11.441,-9.569C-9.768,-1.297 -8.35,7.551 -7.477,13.111C-4.597,31.566 -3.229,39.81 0,44.112" style="fill:rgb(0,163,252);fill-rule:nonzero;"/>
            </g>
            <g transform="matrix(0,1.26241,1.26241,0,511.989,137.212)">
                <path d="M168.058,28.255C166.069,19.151 165.005,9.701 165.005,0C165.005,-1.692 165.047,-3.373 165.11,-5.05L85.142,-18.67C84.606,-12.516 84.316,-6.293 84.316,0C84.316,15.249 85.924,30.124 88.976,44.463L168.058,28.255Z" style="fill:white;fill-opacity:0.85;"/>
            </g>
            <g transform="matrix(0,1.26241,1.26241,0,511.989,137.212)">
                <path d="M229.153,113.167C203.766,97.942 183.932,74.416 173.389,46.344L93.714,62.673C112.342,123.12 157.204,172.064 215.009,196.21L229.153,113.167Z" style="fill:white;fill-opacity:0.85;"/>
            </g>
        </g>
        <g transform="matrix(3.21115,0,0,3.21115,-2027.8,-253.883)">
            <circle cx="901.795" cy="127.644" r="21.799" style="fill:rgb(255,0,0);"/>
        </g>
    </g>
</svg>