<?xml version="1.0" encoding="UTF-8" standalone="no"?>
<!DOCTYPE svg PUBLIC "-//W3C//DTD SVG 1.1//EN" 
  "http://www.w3.org/Graphics/SVG/1.1/DTD/svg11.dtd">
<svg width="100%" height="100%" viewBox="0 0 4267 4267" version="1.1" 
  xmlns="http://www.w3.org/2000/svg" 
  xmlns:xlink="http://www.w3.org/1999/xlink" 
  xml:space="preserve" 
  xmlns:serif="http://www.serif.com/" 
  style="fill-rule:evenodd;clip-rule:evenodd;stroke-linejoin:round;stroke-miterlimit:2;">
  <defs>
    <clipPath id="clipRounded">
      <rect x="0" y="0" width="4267" height="4267" rx="600" ry="600"/>
    </clipPath>
  </defs>
  <g clip-path="url(#clipRounded)">
    <rect x="0" y="0" width="4266.67" height="4266.67" style="fill:#fff;"/>
    <g>
      <path d="M2230.87,396.131c-60.613,-3.175 -121.35,-3.175 -181.962,-0c-24.559,68.478 -46.118,137.887 -64.679,208.228c-56.712,5.774 -113.058,14.698 -168.777,26.732c-39.39,-61.163 -81.343,-120.513 -125.86,-178.05c-58.627,15.711 -116.391,34.48 -173.056,56.229c-2.196,72.716 -1.252,145.39 2.832,218.024c-52.151,23.016 -102.982,48.915 -152.256,77.578c-56.361,-45.997 -114.602,-89.478 -174.72,-130.442c-50.902,33.059 -100.04,68.759 -147.21,106.954c20.382,69.835 43.737,138.661 70.066,206.478c-42.486,38.005 -82.826,78.344 -120.831,120.831c-67.816,-26.329 -136.642,-49.685 -206.477,-70.067c-38.196,47.171 -73.896,96.308 -106.955,147.21c40.965,60.119 84.446,118.359 130.443,174.721c-28.663,49.274 -54.563,100.104 -77.578,152.256c-72.634,-4.084 -145.309,-5.028 -218.024,-2.833c-21.75,56.665 -40.518,114.429 -56.23,173.056c57.538,44.518 116.888,86.471 178.05,125.86c-12.034,55.72 -20.958,112.066 -26.731,168.777c-70.341,18.561 -139.751,40.121 -208.229,64.68c-3.174,60.612 -3.174,121.349 0,181.961c68.478,24.559 137.888,46.119 208.229,64.68c5.773,56.711 14.697,113.057 26.731,168.777c-61.162,39.389 -120.512,81.342 -178.05,125.86c15.712,58.626 34.48,116.39 56.23,173.055c72.715,2.196 145.39,1.252 218.024,-2.832c23.015,52.152 48.915,102.982 77.578,152.256c-45.997,56.362 -89.478,114.602 -130.443,174.72c33.059,50.903 68.759,100.04 106.955,147.21c69.835,-20.382 138.661,-43.737 206.477,-70.066c38.005,42.486 78.345,82.826 120.831,120.831c-26.329,67.817 -49.684,136.643 -70.066,206.478c47.17,38.195 96.308,73.895 147.21,106.954c60.118,-40.965 118.359,-84.446 174.72,-130.443c49.274,28.663 100.105,54.563 152.256,77.579c-4.084,72.634 -5.028,145.308 -2.832,218.024c56.665,21.749 114.429,40.518 173.056,56.229c44.517,-57.538 86.47,-116.887 125.86,-178.05c55.719,12.034 112.065,20.958 168.777,26.732c18.561,70.341 40.12,139.75 64.679,208.228c60.612,3.174 121.349,3.174 181.962,-0c24.558,-68.478 46.118,-137.887 64.679,-208.228c56.711,-5.774 113.057,-14.698 168.777,-26.732c39.389,61.163 81.343,120.512 125.86,178.05c58.627,-15.711 116.391,-34.48 173.056,-56.229c2.196,-72.716 1.252,-145.39 -2.832,-218.024c52.151,-23.016 102.982,-48.916 152.256,-77.579c56.361,45.997 114.601,89.478 174.72,130.443c50.902,-33.059 100.039,-68.759 147.21,-106.954c-20.382,-69.835 -43.738,-138.661 -70.067,-206.478c42.487,-38.005 82.826,-78.345 120.831,-120.831c67.817,26.329 136.643,49.684 206.478,70.066c38.195,-47.17 73.895,-96.307 106.954,-147.21c-40.964,-60.118 -84.445,-118.358 -130.442,-174.72c28.663,-49.274 54.562,-100.104 77.578,-152.256c72.634,4.084 145.309,5.028 218.024,2.832c21.749,-56.665 40.518,-114.429 56.229,-173.055c-57.537,-44.518 -116.887,-86.471 -178.049,-125.86c12.033,-55.72 20.958,-112.066 26.731,-168.777c70.341,-18.561 139.751,-40.121 208.228,-64.68c3.175,-60.612 3.175,-121.349 0,-181.961c-68.477,-24.559 -137.887,-46.119 -208.228,-64.68c-5.773,-56.711 -14.698,-113.057 -26.731,-168.777c61.162,-39.389 120.512,-81.342 178.049,-125.86c-15.711,-58.627 -34.48,-116.391 -56.229,-173.056c-72.715,-2.195 -145.39,-1.251 -218.024,2.833c-23.016,-52.152 -48.915,-102.982 -77.578,-152.256c45.997,-56.362 89.478,-114.602 130.442,-174.721c-33.059,-50.903 -68.759,-100.04 -106.954,-147.21c-69.835,20.382 -138.661,43.738 -206.478,70.067c-38.005,-42.487 -78.344,-82.826 -120.831,-120.831c26.329,-67.817 49.685,-136.643 70.067,-206.478c-47.171,-38.195 -96.308,-73.895 -147.21,-106.954c-60.119,40.964 -118.359,84.445 -174.72,130.442c-49.274,-28.663 -100.105,-54.563 -152.256,-77.579c4.084,-72.634 5.028,-145.308 2.832,-218.024c-56.665,-21.749 -114.429,-40.518 -173.056,-56.229c-44.517,57.537 -86.471,116.887 -125.86,178.05c-55.72,-12.034 -112.066,-20.958 -168.777,-26.732c-18.561,-70.341 -40.121,-139.75 -64.679,-208.228Zm-90.981,1389.29c192.02,-0 347.917,155.896 347.917,347.916c-0,192.021 -155.897,347.917 -347.917,347.917c-192.021,0 -347.917,-155.896 -347.917,-347.917c0,-192.02 155.896,-347.916 347.917,-347.916Z"/>
      <path d="M878.137,2133.29c0,-692.753 561.953,-1254.34 1255.16,-1254.34c693.204,-0 1255.16,561.587 1255.16,1254.34c-0,692.753 -561.953,1254.34 -1255.16,1254.34c-693.204,-0 -1255.16,-561.587 -1255.16,-1254.34Z" style="fill:#fff;"/>
      <circle cx="2133.29" cy="2133.29" r="1124.93"/>
      <path d="M2946.44,2257.57c2.486,3.292 4.936,5.992 7.376,8.237c12.099,-67.408 22.813,-128.907 33.153,-184.082c-16.243,-108.007 -32.635,-241.925 -98.316,-296.942c-76.326,-49.42 -78.761,37.334 -152.05,527.059c-15.928,96.44 -41.168,224.853 -66.815,318.015c-15.512,-74.243 -34.705,-187.713 -49.772,-268.271c-44.627,-235.79 -62.736,-296.47 -92.49,-328.938c-29.931,-33.783 -59.912,-40.886 -81.369,-41.978c-7.654,-40.307 -18.095,-100.992 -26.865,-148.092c-60.194,-317.075 -95.352,-386.187 -155.018,-417.386c-21.202,-9.622 -43.701,-9.071 -62.746,1.487c-23.494,15.757 -37.695,28.902 -57.883,112.738c-20.11,85.847 -46.206,242.379 -91.528,591.426c-19.924,153.963 -44.002,352.298 -61.337,480.706c-27.986,-88.064 -58.616,-201.058 -80.364,-285.992c-95.922,-382.756 -106.09,-437.713 -149.754,-463.592c-26.532,-15.349 -49.618,-11.779 -67.778,-3.723c-6.071,-47.835 -10.173,-124.699 -11.91,-176.243c-7.024,-210.249 0.561,-289.83 -74.45,-278.699c-80.258,16.924 -132.025,116.36 -199.502,586.365c-14.697,106.937 -29.097,240.568 -40.029,327.645c-20.499,-73.51 -40.178,-155.555 -53.323,-208.095c-12.261,66.593 -23.258,126.718 -34.042,180.147c37.005,164.163 64.167,243.948 100.186,273.841c76.414,52.406 66.885,-12.062 133.955,-557.786c9.691,-67.978 22.216,-145.864 36.505,-218.667c7.775,146.717 18.012,225.363 49.008,264.989c33.732,43.765 66.551,45.664 90.43,35.801c18.776,67.464 51.73,204.22 80.78,310.329c130.584,462.841 177.318,492.61 236.105,516.465c2.588,0.639 5.176,1.199 7.63,1.672c44.452,2.713 67.705,-2.691 93.737,-92.709c25.74,-91.633 54.262,-267.877 102.566,-644.243c15.331,-119.032 32.43,-257.77 46.738,-369.351c4.728,27.009 9.043,52.735 12.692,74.881c30.676,188.514 39.478,248.954 64.051,287.77c37.084,60.166 80.466,57.536 102.779,55.365c13.187,50.789 32.903,149.725 46.072,220.745c70.695,390.336 76.789,440.357 152.309,437.375c86.573,-15.673 144.781,-158.134 209.698,-554.818c17.396,-106.919 35.065,-241.693 48.595,-322.011c7.747,38.302 14.313,79.271 18.355,105.016c13.335,85.452 19.669,123.625 34.621,143.544" style="fill:#00a4e0;fill-rule:nonzero;"/>
      <path d="M2264.12,1536.83c-42.154,-9.209 -85.911,-14.136 -130.829,-14.136c-7.835,0 -15.619,0.195 -23.384,0.486l-63.064,-370.277c28.494,-2.482 57.309,-3.824 86.448,-3.824c70.607,-0 139.483,7.445 205.877,21.577l-75.048,366.174Z" style="fill:#fff;fill-opacity:0.85;"/>
      <path d="M2657.29,1819.72c-70.496,-117.55 -179.429,-209.388 -309.411,-258.205l75.608,-368.921c279.889,86.254 506.515,293.979 618.319,561.634l-384.516,65.492Z" style="fill:#fff;fill-opacity:0.85;"/>
    </g>
    <circle cx="3616.67" cy="650" r="291.667" style="fill:#f00;"/>
  </g>
</svg>
